<mxfile host="65bd71144e">
    <diagram id="0k4jsVLorXSa-fQWCVas" name="Page-1">
        <mxGraphModel dx="2359" dy="1968" grid="1" gridSize="10" guides="1" tooltips="1" connect="1" arrows="1" fold="1" page="1" pageScale="1" pageWidth="850" pageHeight="1100" math="0" shadow="0">
            <root>
                <mxCell id="0"/>
                <mxCell id="1" parent="0"/>
                <mxCell id="74" style="edgeStyle=orthogonalEdgeStyle;html=1;strokeWidth=1;fontSize=13;fontColor=#000000;startArrow=none;startFill=0;endArrow=block;endFill=1;" edge="1" parent="1" source="2" target="72">
                    <mxGeometry relative="1" as="geometry"/>
                </mxCell>
                <mxCell id="2" value="Working history" style="rounded=0;whiteSpace=wrap;html=1;fillColor=#fa6800;fontColor=#000000;strokeColor=#C73500;" parent="1" vertex="1">
                    <mxGeometry x="485" y="720" width="120" height="60" as="geometry"/>
                </mxCell>
                <mxCell id="47" style="edgeStyle=orthogonalEdgeStyle;html=1;" parent="1" source="4" target="2" edge="1">
                    <mxGeometry relative="1" as="geometry"/>
                </mxCell>
                <mxCell id="75" style="edgeStyle=orthogonalEdgeStyle;html=1;strokeWidth=1;fontSize=13;fontColor=#000000;startArrow=none;startFill=0;endArrow=block;endFill=1;" edge="1" parent="1" source="4" target="9">
                    <mxGeometry relative="1" as="geometry"/>
                </mxCell>
                <mxCell id="4" value="Execute using PATH variable / relative or absolute path" style="rounded=0;whiteSpace=wrap;html=1;fillColor=#fa6800;fontColor=#000000;strokeColor=#C73500;" parent="1" vertex="1">
                    <mxGeometry x="305" y="630" width="120" height="60" as="geometry"/>
                </mxCell>
                <mxCell id="7" value="&lt;font style=&quot;font-size: 12px;&quot;&gt;Handle '&amp;nbsp;&lt;span style=&quot;font-family: &amp;quot;Fira Code&amp;quot;, Consolas, &amp;quot;Courier New&amp;quot;, monospace, &amp;quot;Droid Sans Mono&amp;quot;, &amp;quot;monospace&amp;quot;, monospace;&quot;&gt;should prevent the shell from interpreting the metacharacters in the quoted sequence&lt;/span&gt;&lt;/font&gt;" style="rounded=0;whiteSpace=wrap;html=1;fillColor=#fa6800;fontColor=#000000;strokeColor=#C73500;" parent="1" vertex="1">
                    <mxGeometry x="440" y="-370" width="210" height="90" as="geometry"/>
                </mxCell>
                <mxCell id="63" style="edgeStyle=orthogonalEdgeStyle;html=1;strokeWidth=1;fontSize=13;fontColor=#000000;startArrow=none;startFill=0;endArrow=block;endFill=1;" edge="1" parent="1" source="8" target="51">
                    <mxGeometry relative="1" as="geometry"/>
                </mxCell>
                <mxCell id="8" value="&lt;font style=&quot;font-size: 12px;&quot;&gt;Handle &quot;&amp;nbsp;&lt;span style=&quot;font-family: &amp;quot;Fira Code&amp;quot;, Consolas, &amp;quot;Courier New&amp;quot;, monospace, &amp;quot;Droid Sans Mono&amp;quot;, &amp;quot;monospace&amp;quot;, monospace;&quot;&gt;should prevent the shell from interpreting the metacharacters in the quoted sequence except for $&lt;/span&gt;&lt;/font&gt;" style="rounded=0;whiteSpace=wrap;html=1;fillColor=#fa6800;fontColor=#000000;strokeColor=#C73500;" parent="1" vertex="1">
                    <mxGeometry x="80" y="-370" width="210" height="90" as="geometry"/>
                </mxCell>
                <mxCell id="76" style="edgeStyle=orthogonalEdgeStyle;html=1;strokeWidth=1;fontSize=13;fontColor=#000000;startArrow=none;startFill=0;endArrow=block;endFill=1;" edge="1" parent="1" source="9" target="10">
                    <mxGeometry relative="1" as="geometry"/>
                </mxCell>
                <mxCell id="9" value="Implement redirections:&lt;br&gt;- &amp;lt; should redirect input.&lt;br&gt;- &amp;gt; should redirect output.&lt;br&gt;- &amp;lt;&amp;lt; should be given a delimiter, then read the input until a line containing the delimiter is seen, no history.&lt;br&gt;- &amp;gt;&amp;gt; should redirect the ouput in the appeend mode." style="rounded=0;whiteSpace=wrap;html=1;fillColor=#fa6800;fontColor=#000000;strokeColor=#C73500;" parent="1" vertex="1">
                    <mxGeometry x="32.5" y="440" width="240" height="140" as="geometry"/>
                </mxCell>
                <mxCell id="10" value="Implement pipes |&amp;nbsp;" style="rounded=0;whiteSpace=wrap;html=1;fillColor=#fa6800;fontColor=#000000;strokeColor=#C73500;" parent="1" vertex="1">
                    <mxGeometry x="-140" y="630" width="185" height="50" as="geometry"/>
                </mxCell>
                <mxCell id="71" value="" style="edgeStyle=orthogonalEdgeStyle;html=1;strokeWidth=1;fontSize=13;fontColor=#000000;startArrow=none;startFill=0;endArrow=block;endFill=1;" edge="1" parent="1" source="12" target="70">
                    <mxGeometry relative="1" as="geometry"/>
                </mxCell>
                <mxCell id="12" value="Handle $?" style="rounded=0;whiteSpace=wrap;html=1;fillColor=#f0a30a;strokeColor=#BD7000;fontColor=#000000;" parent="1" vertex="1">
                    <mxGeometry x="-660" y="-200" width="185" height="40" as="geometry"/>
                </mxCell>
                <mxCell id="13" value="Handle ctrl+c, ctrl+d, ctrl+\" style="rounded=0;whiteSpace=wrap;html=1;fillColor=#008a00;fontColor=#ffffff;strokeColor=#005700;" parent="1" vertex="1">
                    <mxGeometry x="-440" y="-200" width="185" height="40" as="geometry"/>
                </mxCell>
                <mxCell id="43" style="edgeStyle=orthogonalEdgeStyle;html=1;" parent="1" source="14" target="4" edge="1">
                    <mxGeometry relative="1" as="geometry"/>
                </mxCell>
                <mxCell id="14" value="Handle builtins:&lt;br&gt;- echo with -n&lt;br&gt;- cd with relative or absolute path&lt;br&gt;- pwd with no options&lt;br&gt;export with no options&lt;br&gt;unset with no options&lt;br&gt;env with no options or arguments&lt;br&gt;exit with no options" style="rounded=0;whiteSpace=wrap;html=1;fillColor=#f0a30a;fontColor=#000000;strokeColor=#BD7000;" parent="1" vertex="1">
                    <mxGeometry x="590" y="440" width="230" height="160" as="geometry"/>
                </mxCell>
                <mxCell id="37" style="edgeStyle=orthogonalEdgeStyle;html=1;" parent="1" source="29" target="14" edge="1">
                    <mxGeometry relative="1" as="geometry"/>
                </mxCell>
                <mxCell id="78" value="" style="edgeStyle=orthogonalEdgeStyle;html=1;strokeWidth=1;fontSize=13;fontColor=#000000;startArrow=none;startFill=0;endArrow=block;endFill=1;" edge="1" parent="1" source="29" target="77">
                    <mxGeometry relative="1" as="geometry"/>
                </mxCell>
                <mxCell id="80" style="edgeStyle=orthogonalEdgeStyle;html=1;strokeWidth=1;fontSize=13;fontColor=#000000;startArrow=none;startFill=0;endArrow=block;endFill=1;" edge="1" parent="1" source="29" target="79">
                    <mxGeometry relative="1" as="geometry"/>
                </mxCell>
                <mxCell id="29" value="Nizz" style="ellipse;whiteSpace=wrap;html=1;fontSize=17;fillColor=#e51400;strokeColor=#B20000;fontColor=#ffffff;rounded=0;strokeWidth=6;fontStyle=1;" parent="1" vertex="1">
                    <mxGeometry x="325" y="220" width="80" height="80" as="geometry"/>
                </mxCell>
                <mxCell id="53" style="edgeStyle=none;html=1;fontSize=13;endArrow=block;endFill=1;startArrow=classic;startFill=1;fillColor=#1ba1e2;strokeColor=#006EAF;strokeWidth=5;" edge="1" parent="1" source="27" target="29">
                    <mxGeometry relative="1" as="geometry"/>
                </mxCell>
                <mxCell id="57" value="" style="edgeStyle=none;html=1;strokeWidth=1;fontSize=13;startArrow=none;startFill=0;endArrow=block;endFill=1;" edge="1" parent="1" source="27" target="56">
                    <mxGeometry relative="1" as="geometry"/>
                </mxCell>
                <mxCell id="58" value="" style="edgeStyle=none;html=1;strokeWidth=1;fontSize=13;startArrow=none;startFill=0;endArrow=block;endFill=1;" edge="1" parent="1" source="27" target="56">
                    <mxGeometry relative="1" as="geometry"/>
                </mxCell>
                <mxCell id="67" style="edgeStyle=orthogonalEdgeStyle;html=1;strokeWidth=1;fontSize=13;fontColor=#000000;startArrow=none;startFill=0;endArrow=block;endFill=1;" edge="1" parent="1" source="27" target="13">
                    <mxGeometry relative="1" as="geometry"/>
                </mxCell>
                <mxCell id="68" style="edgeStyle=orthogonalEdgeStyle;html=1;strokeWidth=1;fontSize=13;fontColor=#000000;startArrow=none;startFill=0;endArrow=block;endFill=1;" edge="1" parent="1" source="27" target="12">
                    <mxGeometry relative="1" as="geometry"/>
                </mxCell>
                <mxCell id="88" style="edgeStyle=elbowEdgeStyle;html=1;dashed=1;strokeWidth=1;fontSize=12;fontColor=#000000;startArrow=none;startFill=0;endArrow=block;endFill=1;" edge="1" parent="1" source="59" target="90">
                    <mxGeometry relative="1" as="geometry">
                        <mxPoint x="1060" y="-60" as="targetPoint"/>
                    </mxGeometry>
                </mxCell>
                <mxCell id="91" value="&lt;font color=&quot;#fcfeff&quot;&gt;NOTE&lt;/font&gt;" style="edgeLabel;html=1;align=center;verticalAlign=middle;resizable=0;points=[];fontSize=12;fontColor=#000000;" vertex="1" connectable="0" parent="88">
                    <mxGeometry x="0.0718" y="-4" relative="1" as="geometry">
                        <mxPoint as="offset"/>
                    </mxGeometry>
                </mxCell>
                <mxCell id="27" value="Nata" style="ellipse;whiteSpace=wrap;html=1;fontSize=17;fillColor=#e51400;strokeColor=#B20000;fontColor=#ffffff;rounded=0;strokeWidth=6;fontStyle=1;" parent="1" vertex="1">
                    <mxGeometry x="325" y="-100" width="80" height="80" as="geometry"/>
                </mxCell>
                <mxCell id="50" value="&lt;div style=&quot;text-align: left; font-size: 13px;&quot;&gt;&lt;span style=&quot;background-color: initial; font-size: 13px;&quot;&gt;Regarding ; and \ we have these 3 options:&lt;/span&gt;&lt;/div&gt;&lt;div style=&quot;text-align: left; font-size: 13px;&quot;&gt;&lt;span style=&quot;background-color: initial; font-size: 13px;&quot;&gt;1) remove them from the cmd during the parsing&lt;/span&gt;&lt;/div&gt;&lt;div style=&quot;text-align: left; font-size: 13px;&quot;&gt;&lt;span style=&quot;background-color: initial; font-size: 13px;&quot;&gt;2) Leave them and continue with the execution as if they are normal simbols&lt;/span&gt;&lt;/div&gt;&lt;div style=&quot;text-align: left; font-size: 13px;&quot;&gt;&lt;span style=&quot;background-color: initial; font-size: 13px;&quot;&gt;3) Return an error&amp;nbsp;&lt;/span&gt;&lt;/div&gt;&lt;div style=&quot;text-align: left; font-size: 13px;&quot;&gt;&lt;span style=&quot;background-color: initial; font-size: 13px;&quot;&gt;NOTE: this consideration i would suppose will need be taken into consideration only when the are not inside &quot;&quot; or ''&lt;/span&gt;&lt;/div&gt;" style="text;html=1;strokeColor=#CC99FF;fillColor=none;align=center;verticalAlign=middle;whiteSpace=wrap;rounded=0;strokeWidth=5;spacingTop=0;spacing=8;fontSize=13;horizontal=1;" vertex="1" parent="1">
                    <mxGeometry x="415" y="10" width="260" height="165" as="geometry"/>
                </mxCell>
                <mxCell id="51" value="Variable expansion" style="rounded=0;whiteSpace=wrap;html=1;fillColor=#fa6800;fontColor=#000000;strokeColor=#C73500;" vertex="1" parent="1">
                    <mxGeometry x="92.5" y="-500" width="185" height="40" as="geometry"/>
                </mxCell>
                <mxCell id="61" style="edgeStyle=orthogonalEdgeStyle;html=1;strokeWidth=1;fontSize=13;fontColor=#000000;startArrow=none;startFill=0;endArrow=block;endFill=1;" edge="1" parent="1" source="56" target="8">
                    <mxGeometry relative="1" as="geometry"/>
                </mxCell>
                <mxCell id="62" style="edgeStyle=orthogonalEdgeStyle;html=1;strokeWidth=1;fontSize=13;fontColor=#000000;startArrow=none;startFill=0;endArrow=block;endFill=1;" edge="1" parent="1" source="56" target="7">
                    <mxGeometry relative="1" as="geometry"/>
                </mxCell>
                <mxCell id="64" style="edgeStyle=orthogonalEdgeStyle;html=1;strokeWidth=3;fontSize=13;fontColor=#000000;startArrow=none;startFill=0;endArrow=block;endFill=1;fillColor=#fad9d5;strokeColor=#ae4132;" edge="1" parent="1" source="56" target="59">
                    <mxGeometry relative="1" as="geometry"/>
                </mxCell>
                <mxCell id="82" value="" style="edgeStyle=orthogonalEdgeStyle;html=1;strokeWidth=1;fontSize=14;fontColor=#000000;startArrow=none;startFill=0;endArrow=block;endFill=1;shape=link;dashed=1;" edge="1" parent="1" source="56" target="81">
                    <mxGeometry relative="1" as="geometry"/>
                </mxCell>
                <mxCell id="56" value="Parsing" style="rhombus;whiteSpace=wrap;html=1;fontSize=17;fillColor=#b1ddf0;strokeColor=#10739e;rounded=0;strokeWidth=1;fontStyle=1;fontColor=#000000;" vertex="1" parent="1">
                    <mxGeometry x="292.5" y="-220" width="145" height="80" as="geometry"/>
                </mxCell>
                <mxCell id="66" value="" style="edgeStyle=orthogonalEdgeStyle;html=1;strokeWidth=1;fontSize=13;fontColor=#000000;startArrow=none;startFill=0;endArrow=block;endFill=1;" edge="1" parent="1" source="59" target="65">
                    <mxGeometry relative="1" as="geometry"/>
                </mxCell>
                <mxCell id="87" style="edgeStyle=entityRelationEdgeStyle;shape=link;html=1;dashed=1;strokeWidth=1;fontSize=12;fontColor=#000000;startArrow=none;startFill=0;endArrow=block;endFill=1;" edge="1" parent="1" source="59" target="86">
                    <mxGeometry relative="1" as="geometry"/>
                </mxCell>
                <mxCell id="59" value="Tokenization" style="rhombus;whiteSpace=wrap;html=1;fontSize=17;fillColor=#b1ddf0;strokeColor=#10739e;rounded=0;strokeWidth=1;fontStyle=1;fontColor=#000000;" vertex="1" parent="1">
                    <mxGeometry x="-180" y="-220" width="145" height="80" as="geometry"/>
                </mxCell>
                <mxCell id="65" value="&lt;span style=&quot;font-weight: normal;&quot;&gt;&lt;font style=&quot;font-size: 13px;&quot;&gt;Here we are going to need to create a linked list with 3 fields [cmdType, value, pointer to the next value] we can keep it simple and use a one way list&amp;nbsp;&lt;/font&gt;&lt;/span&gt;" style="rounded=0;whiteSpace=wrap;html=1;fontSize=17;fillColor=#fa6800;strokeWidth=1;fontStyle=1;fontColor=#000000;strokeColor=#C73500;" vertex="1" parent="1">
                    <mxGeometry x="-208.75" y="-390" width="202.5" height="110" as="geometry"/>
                </mxCell>
                <mxCell id="70" value="Here a global variable will be needed" style="rounded=0;whiteSpace=wrap;html=1;fillColor=#fa6800;fontColor=#000000;strokeColor=#C73500;" vertex="1" parent="1">
                    <mxGeometry x="-660" y="-320" width="185" height="40" as="geometry"/>
                </mxCell>
                <mxCell id="72" value="Mi semra che Nata l'ha gia fatto da testare" style="ellipse;shape=cloud;whiteSpace=wrap;html=1;rounded=0;strokeColor=#CC99FF;strokeWidth=1;fontSize=13;fontColor=#000000;fillColor=#86CDF0;" vertex="1" parent="1">
                    <mxGeometry x="670" y="710" width="345" height="80" as="geometry"/>
                </mxCell>
                <mxCell id="77" value="Tester" style="whiteSpace=wrap;html=1;fontSize=14;fillColor=#f0a30a;strokeColor=#BD7000;fontColor=#000000;rounded=0;strokeWidth=1;fontStyle=0;" vertex="1" parent="1">
                    <mxGeometry x="400" y="360" width="120" height="60" as="geometry"/>
                </mxCell>
                <mxCell id="79" value="Path identifier" style="whiteSpace=wrap;html=1;fontSize=14;fillColor=#f0a30a;strokeColor=#BD7000;fontColor=#000000;rounded=0;strokeWidth=1;fontStyle=0;" vertex="1" parent="1">
                    <mxGeometry x="210" y="360" width="120" height="60" as="geometry"/>
                </mxCell>
                <mxCell id="81" value="&lt;div style=&quot;font-size: 12px;&quot;&gt;&lt;font style=&quot;font-size: 12px; font-weight: normal;&quot;&gt;Parsing:&lt;/font&gt;&lt;/div&gt;&lt;div style=&quot;font-size: 12px;&quot;&gt;&lt;font style=&quot;font-size: 12px; font-weight: normal;&quot;&gt;- Syntax errors to consider in your paring:&lt;/font&gt;&lt;/div&gt;&lt;div style=&quot;font-size: 12px;&quot;&gt;&lt;font style=&quot;font-size: 12px;&quot;&gt;&lt;span style=&quot;font-weight: normal;&quot;&gt;&lt;span style=&quot;&quot;&gt;&#9;&lt;/span&gt;1) Unmatched Quotes:&lt;/span&gt;&lt;/font&gt;&lt;/div&gt;&lt;div style=&quot;font-size: 12px;&quot;&gt;&lt;font style=&quot;font-size: 12px;&quot;&gt;&lt;span style=&quot;font-weight: normal;&quot;&gt;&lt;span style=&quot;&quot;&gt;&#9;&#9;&lt;/span&gt;Examples:&lt;/span&gt;&lt;/font&gt;&lt;/div&gt;&lt;div style=&quot;font-size: 12px;&quot;&gt;&lt;font style=&quot;font-size: 12px;&quot;&gt;&lt;span style=&quot;font-weight: normal;&quot;&gt;&lt;span style=&quot;&quot;&gt;&#9;&#9;&#9;&lt;/span&gt;echo &quot;hello world&lt;/span&gt;&lt;/font&gt;&lt;/div&gt;&lt;div style=&quot;font-size: 12px;&quot;&gt;&lt;font style=&quot;font-size: 12px;&quot;&gt;&lt;span style=&quot;font-weight: normal;&quot;&gt;&lt;span style=&quot;&quot;&gt;&#9;&#9;&#9;&lt;/span&gt;echo 'hello World&quot;&lt;/span&gt;&lt;/font&gt;&lt;/div&gt;&lt;div style=&quot;font-size: 12px;&quot;&gt;&lt;font style=&quot;font-size: 12px;&quot;&gt;&lt;span style=&quot;font-weight: normal;&quot;&gt;&lt;span style=&quot;&quot;&gt;&#9;&lt;/span&gt;2) Invalid or Misplaced redirection operators:&lt;/span&gt;&lt;/font&gt;&lt;/div&gt;&lt;div style=&quot;font-size: 12px;&quot;&gt;&lt;font style=&quot;font-size: 12px;&quot;&gt;&lt;span style=&quot;font-weight: normal;&quot;&gt;&lt;span style=&quot;&quot;&gt;&#9;&#9;&lt;/span&gt;a) Missing filename after redirection:&lt;/span&gt;&lt;/font&gt;&lt;/div&gt;&lt;div style=&quot;font-size: 12px;&quot;&gt;&lt;font style=&quot;font-size: 12px;&quot;&gt;&lt;span style=&quot;font-weight: normal;&quot;&gt;&lt;span style=&quot;&quot;&gt;&#9;&#9;&#9;&lt;/span&gt;Example:&lt;/span&gt;&lt;/font&gt;&lt;/div&gt;&lt;div style=&quot;font-size: 12px;&quot;&gt;&lt;font style=&quot;font-size: 12px;&quot;&gt;&lt;span style=&quot;font-weight: normal;&quot;&gt;&lt;span style=&quot;&quot;&gt;&#9;&#9;&#9;&#9;&lt;/span&gt;ls &amp;gt; *issue No filename specified after the redirection operator &amp;gt;.&lt;/span&gt;&lt;/font&gt;&lt;/div&gt;&lt;div style=&quot;font-size: 12px;&quot;&gt;&lt;font style=&quot;font-size: 12px;&quot;&gt;&lt;span style=&quot;font-weight: normal;&quot;&gt;&lt;span style=&quot;&quot;&gt;&#9;&#9;&lt;/span&gt;b) Redirection operators without a command:&lt;/span&gt;&lt;/font&gt;&lt;/div&gt;&lt;div style=&quot;font-size: 12px;&quot;&gt;&lt;font style=&quot;font-size: 12px;&quot;&gt;&lt;span style=&quot;font-weight: normal;&quot;&gt;&lt;span style=&quot;&quot;&gt;&#9;&#9;&#9;&lt;/span&gt;Example:&amp;nbsp;&lt;/span&gt;&lt;/font&gt;&lt;/div&gt;&lt;div style=&quot;font-size: 12px;&quot;&gt;&lt;font style=&quot;font-size: 12px;&quot;&gt;&lt;span style=&quot;font-weight: normal;&quot;&gt;&lt;span style=&quot;&quot;&gt;&#9;&#9;&#9;&#9;&lt;/span&gt;&amp;gt; output.txt *issue redirection operator used without a preceding command&lt;/span&gt;&lt;/font&gt;&lt;/div&gt;&lt;div style=&quot;font-size: 12px;&quot;&gt;&lt;font style=&quot;font-size: 12px;&quot;&gt;&lt;span style=&quot;font-weight: normal;&quot;&gt;&lt;span style=&quot;&quot;&gt;&#9;&#9;&lt;/span&gt;c) Multiple redirection operators together:&lt;/span&gt;&lt;/font&gt;&lt;/div&gt;&lt;div style=&quot;font-size: 12px;&quot;&gt;&lt;font style=&quot;font-size: 12px;&quot;&gt;&lt;span style=&quot;font-weight: normal;&quot;&gt;&lt;span style=&quot;&quot;&gt;&#9;&#9;&#9;&lt;/span&gt;Example:&lt;/span&gt;&lt;/font&gt;&lt;/div&gt;&lt;div style=&quot;font-size: 12px;&quot;&gt;&lt;font style=&quot;font-size: 12px;&quot;&gt;&lt;span style=&quot;font-weight: normal;&quot;&gt;&lt;span style=&quot;&quot;&gt;&#9;&#9;&#9;&#9;&lt;/span&gt;cat &amp;lt; &amp;lt; input.txt *issue Consecutive redirection operators without an intervening filename or command&lt;/span&gt;&lt;/font&gt;&lt;/div&gt;&lt;div style=&quot;font-size: 12px;&quot;&gt;&lt;font style=&quot;font-size: 12px;&quot;&gt;&lt;span style=&quot;font-weight: normal;&quot;&gt;&lt;span style=&quot;&quot;&gt;&#9;&#9;&lt;/span&gt;d) Invalid redirection operators&lt;/span&gt;&lt;/font&gt;&lt;/div&gt;&lt;div style=&quot;font-size: 12px;&quot;&gt;&lt;font style=&quot;font-size: 12px;&quot;&gt;&lt;span style=&quot;font-weight: normal;&quot;&gt;&lt;span style=&quot;&quot;&gt;&#9;&#9;&#9;&lt;/span&gt;Example:&lt;/span&gt;&lt;/font&gt;&lt;/div&gt;&lt;div style=&quot;font-size: 12px;&quot;&gt;&lt;font style=&quot;font-size: 12px;&quot;&gt;&lt;span style=&quot;font-weight: normal;&quot;&gt;&lt;span style=&quot;&quot;&gt;&#9;&#9;&#9;&#9;&lt;/span&gt;ls &amp;gt;| file.txt *issue is not a valid redirection oprator in your shell.&lt;/span&gt;&lt;/font&gt;&lt;/div&gt;&lt;div style=&quot;font-size: 12px;&quot;&gt;&lt;font style=&quot;font-size: 12px;&quot;&gt;&lt;span style=&quot;font-weight: normal;&quot;&gt;&lt;span style=&quot;&quot;&gt;&#9;&lt;/span&gt;3) Misplaced or consecutive pipes:&lt;/span&gt;&lt;/font&gt;&lt;/div&gt;&lt;div style=&quot;font-size: 12px;&quot;&gt;&lt;font style=&quot;font-size: 12px;&quot;&gt;&lt;span style=&quot;font-weight: normal;&quot;&gt;&lt;span style=&quot;&quot;&gt;&#9;&#9;&lt;/span&gt;| ls or ls | or ls || pwd&lt;/span&gt;&lt;/font&gt;&lt;/div&gt;&lt;div style=&quot;font-size: 12px;&quot;&gt;&lt;font style=&quot;font-size: 12px;&quot;&gt;&lt;span style=&quot;font-weight: normal;&quot;&gt;&lt;span style=&quot;&quot;&gt;&#9;&lt;/span&gt;4) Misplaced redirections relative to commands and arguments:&lt;/span&gt;&lt;/font&gt;&lt;/div&gt;&lt;div style=&quot;font-size: 12px;&quot;&gt;&lt;font style=&quot;font-size: 12px;&quot;&gt;&lt;span style=&quot;font-weight: normal;&quot;&gt;&lt;span style=&quot;&quot;&gt;&#9;&#9;&lt;/span&gt;a) redirection after arguments instead of as part of command&lt;/span&gt;&lt;/font&gt;&lt;/div&gt;&lt;div style=&quot;font-size: 12px;&quot;&gt;&lt;font style=&quot;font-size: 12px;&quot;&gt;&lt;span style=&quot;font-weight: normal;&quot;&gt;&lt;span style=&quot;&quot;&gt;&#9;&#9;&#9;&lt;/span&gt;ls -l file.txt &amp;gt; *issue redirection operator at the end with no specified output file.&lt;/span&gt;&lt;/font&gt;&lt;/div&gt;&lt;div style=&quot;font-size: 12px;&quot;&gt;&lt;font style=&quot;font-size: 12px;&quot;&gt;&lt;span style=&quot;font-weight: normal;&quot;&gt;&lt;span style=&quot;&quot;&gt;&#9;&#9;&lt;/span&gt;b) redirection operators in the middle of command arguments:&lt;/span&gt;&lt;/font&gt;&lt;/div&gt;&lt;div style=&quot;font-size: 12px;&quot;&gt;&lt;font style=&quot;font-size: 12px;&quot;&gt;&lt;span style=&quot;font-weight: normal;&quot;&gt;&lt;span style=&quot;&quot;&gt;&#9;&#9;&#9;&lt;/span&gt;ls &amp;gt; file.txt -l *issue redirection operator appears before all command options and arguments are specified.&lt;/span&gt;&lt;/font&gt;&lt;/div&gt;&lt;div style=&quot;font-size: 12px;&quot;&gt;&lt;font style=&quot;font-size: 12px;&quot;&gt;&lt;span style=&quot;font-weight: normal;&quot;&gt;&lt;span style=&quot;&quot;&gt;&#9;&lt;/span&gt;5) Invalid combination of redirections and pipes&lt;/span&gt;&lt;/font&gt;&lt;/div&gt;&lt;div style=&quot;font-size: 12px;&quot;&gt;&lt;font style=&quot;font-size: 12px;&quot;&gt;&lt;span style=&quot;font-weight: normal;&quot;&gt;&lt;span style=&quot;&quot;&gt;&#9;&#9;&lt;/span&gt;ls &amp;gt; | grep &quot;pattern&quot; *issue redirection operator &amp;gt; followed by a pipe | without and intervening filename.&lt;/span&gt;&lt;/font&gt;&lt;/div&gt;&lt;div style=&quot;font-size: 12px;&quot;&gt;&lt;font style=&quot;font-size: 12px;&quot;&gt;&lt;span style=&quot;font-weight: normal;&quot;&gt;&lt;span style=&quot;&quot;&gt;&#9;&lt;/span&gt;6) Unsupported characters or operators&lt;/span&gt;&lt;/font&gt;&lt;/div&gt;&lt;div style=&quot;font-size: 12px;&quot;&gt;&lt;font style=&quot;font-size: 12px;&quot;&gt;&lt;span style=&quot;font-weight: normal;&quot;&gt;&lt;span style=&quot;&quot;&gt;&#9;&#9;&lt;/span&gt;a) semicolons and logical operators&lt;/span&gt;&lt;/font&gt;&lt;/div&gt;&lt;div style=&quot;font-size: 12px;&quot;&gt;&lt;font style=&quot;font-size: 12px;&quot;&gt;&lt;span style=&quot;font-weight: normal;&quot;&gt;&lt;span style=&quot;&quot;&gt;&#9;&#9;&#9;&lt;/span&gt;ls ; pwd *issue ; are not upported if not implemented&lt;/span&gt;&lt;/font&gt;&lt;/div&gt;&lt;div style=&quot;font-size: 12px;&quot;&gt;&lt;font style=&quot;font-size: 12px;&quot;&gt;&lt;span style=&quot;font-weight: normal;&quot;&gt;&lt;span style=&quot;&quot;&gt;&#9;&#9;&#9;&lt;/span&gt;ls &amp;amp;&amp;amp; pwd *issue &amp;amp;&amp;amp; is not supported&lt;/span&gt;&lt;/font&gt;&lt;/div&gt;&lt;div style=&quot;font-size: 12px;&quot;&gt;&lt;font style=&quot;font-size: 12px;&quot;&gt;&lt;span style=&quot;font-weight: normal;&quot;&gt;&lt;span style=&quot;&quot;&gt;&#9;&lt;/span&gt;7) Heredoc delimiters not specified&lt;/span&gt;&lt;/font&gt;&lt;/div&gt;&lt;div style=&quot;font-size: 12px;&quot;&gt;&lt;font style=&quot;font-size: 12px;&quot;&gt;&lt;span style=&quot;font-weight: normal;&quot;&gt;&lt;span style=&quot;&quot;&gt;&#9;&#9;&lt;/span&gt;cat &amp;lt;&amp;lt; *issue missing delimiter after heredoc operator &amp;lt;&amp;lt;&lt;/span&gt;&lt;/font&gt;&lt;/div&gt;&lt;div style=&quot;font-size: 12px;&quot;&gt;&lt;font style=&quot;font-size: 12px;&quot;&gt;&lt;span style=&quot;font-weight: normal;&quot;&gt;&lt;span style=&quot;&quot;&gt;&#9;&lt;/span&gt;8) excessive file descriptors&lt;/span&gt;&lt;/font&gt;&lt;/div&gt;&lt;div style=&quot;font-size: 12px;&quot;&gt;&lt;font style=&quot;font-size: 12px;&quot;&gt;&lt;span style=&quot;font-weight: normal;&quot;&gt;&lt;span style=&quot;&quot;&gt;&#9;&#9;&lt;/span&gt;command lines that open too many files or pipes without closing them can exhaust system resources&lt;/span&gt;&lt;/font&gt;&lt;/div&gt;&lt;div style=&quot;font-size: 12px;&quot;&gt;&lt;font style=&quot;font-size: 12px;&quot;&gt;&lt;span style=&quot;font-weight: normal;&quot;&gt;&lt;span style=&quot;&quot;&gt;&#9;&lt;/span&gt;9) Empty commands&lt;/span&gt;&lt;/font&gt;&lt;/div&gt;&lt;div style=&quot;font-size: 12px;&quot;&gt;&lt;font style=&quot;font-size: 12px;&quot;&gt;&lt;span style=&quot;font-weight: normal;&quot;&gt;&lt;span style=&quot;&quot;&gt;&#9;&lt;/span&gt;10) escaped characters at the end&lt;/span&gt;&lt;/font&gt;&lt;/div&gt;&lt;div style=&quot;font-size: 12px;&quot;&gt;&lt;font style=&quot;font-size: 12px; font-weight: normal;&quot;&gt;&#9;&#9;echo hello\&lt;/font&gt;&lt;/div&gt;" style="whiteSpace=wrap;html=1;fontSize=17;rounded=0;strokeWidth=1;fontStyle=1;align=left;" vertex="1" parent="1">
                    <mxGeometry x="690" y="-860" width="580" height="580" as="geometry"/>
                </mxCell>
                <mxCell id="86" value="&lt;div style=&quot;font-size: 12px;&quot;&gt;&lt;span style=&quot;font-size: 12px;&quot;&gt;&lt;span style=&quot;font-size: 12px;&quot;&gt;&#9;&lt;/span&gt;enum&lt;/span&gt;&lt;/div&gt;&lt;div style=&quot;font-size: 12px;&quot;&gt;&lt;span style=&quot;font-size: 12px;&quot;&gt;&lt;span style=&quot;font-size: 12px;&quot;&gt;&#9;&lt;/span&gt;typedef enum {&lt;/span&gt;&lt;/div&gt;&lt;div style=&quot;font-size: 12px;&quot;&gt;&lt;span style=&quot;font-size: 12px;&quot;&gt;&amp;nbsp; &amp;nbsp; TOKEN_COMMAND,&lt;/span&gt;&lt;/div&gt;&lt;div style=&quot;font-size: 12px;&quot;&gt;&lt;span style=&quot;font-size: 12px;&quot;&gt;&amp;nbsp; &amp;nbsp; TOKEN_ARGUMENT,&lt;/span&gt;&lt;/div&gt;&lt;div style=&quot;font-size: 12px;&quot;&gt;&lt;span style=&quot;font-size: 12px;&quot;&gt;&amp;nbsp; &amp;nbsp; TOKEN_OPTION,&lt;/span&gt;&lt;/div&gt;&lt;div style=&quot;font-size: 12px;&quot;&gt;&lt;span style=&quot;font-size: 12px;&quot;&gt;&amp;nbsp; &amp;nbsp; TOKEN_PIPE,&lt;/span&gt;&lt;/div&gt;&lt;div style=&quot;font-size: 12px;&quot;&gt;&lt;span style=&quot;font-size: 12px;&quot;&gt;&amp;nbsp; &amp;nbsp; TOKEN_REDIRECTION_IN,&lt;/span&gt;&lt;/div&gt;&lt;div style=&quot;font-size: 12px;&quot;&gt;&lt;span style=&quot;font-size: 12px;&quot;&gt;&amp;nbsp; &amp;nbsp; TOKEN_REDIRECTION_OUT,&lt;/span&gt;&lt;/div&gt;&lt;div style=&quot;font-size: 12px;&quot;&gt;&lt;span style=&quot;font-size: 12px;&quot;&gt;&amp;nbsp; &amp;nbsp; TOKEN_APPEND_OUT,&lt;/span&gt;&lt;/div&gt;&lt;div style=&quot;font-size: 12px;&quot;&gt;&lt;span style=&quot;font-size: 12px;&quot;&gt;&amp;nbsp; &amp;nbsp; TOKEN_HEREDOC,&lt;/span&gt;&lt;/div&gt;&lt;div style=&quot;font-size: 12px;&quot;&gt;&lt;span style=&quot;font-size: 12px;&quot;&gt;&amp;nbsp; &amp;nbsp; TOKEN_FILENAME,&lt;/span&gt;&lt;/div&gt;&lt;div style=&quot;font-size: 12px;&quot;&gt;&lt;span style=&quot;font-size: 12px;&quot;&gt;&amp;nbsp; &amp;nbsp; TOKEN_DELIMITER,&lt;/span&gt;&lt;/div&gt;&lt;div style=&quot;font-size: 12px;&quot;&gt;&lt;span style=&quot;font-size: 12px;&quot;&gt;&amp;nbsp; &amp;nbsp; TOKEN_BUILTIN,&lt;/span&gt;&lt;/div&gt;&lt;div style=&quot;font-size: 12px;&quot;&gt;&lt;span style=&quot;font-size: 12px;&quot;&gt;&amp;nbsp; &amp;nbsp; TOKEN_UNKNOWN&lt;/span&gt;&lt;/div&gt;&lt;div style=&quot;font-size: 12px;&quot;&gt;&lt;span style=&quot;font-size: 12px;&quot;&gt;} TokenType;&lt;/span&gt;&lt;/div&gt;&lt;div style=&quot;font-size: 12px;&quot;&gt;&lt;span style=&quot;font-size: 12px;&quot;&gt;&lt;br style=&quot;font-size: 12px;&quot;&gt;&lt;/span&gt;&lt;/div&gt;&lt;div style=&quot;font-size: 12px;&quot;&gt;&lt;span style=&quot;font-size: 12px;&quot;&gt;typedef struct s_token {&lt;/span&gt;&lt;/div&gt;&lt;div style=&quot;font-size: 12px;&quot;&gt;&lt;span style=&quot;font-size: 12px;&quot;&gt;&amp;nbsp; &amp;nbsp; char *value;&amp;nbsp; &amp;nbsp; &amp;nbsp; &amp;nbsp; &amp;nbsp;// The string value of the token&lt;/span&gt;&lt;/div&gt;&lt;div style=&quot;font-size: 12px;&quot;&gt;&lt;span style=&quot;font-size: 12px;&quot;&gt;&amp;nbsp; &amp;nbsp; TokenType type;&amp;nbsp; &amp;nbsp; &amp;nbsp; // The type of the token&lt;/span&gt;&lt;/div&gt;&lt;div style=&quot;font-size: 12px;&quot;&gt;&lt;span style=&quot;font-size: 12px;&quot;&gt;&amp;nbsp; &amp;nbsp; struct s_token *next; // Pointer to the next token (if using a linked list)&lt;/span&gt;&lt;/div&gt;&lt;div style=&quot;font-size: 12px;&quot;&gt;&lt;span style=&quot;font-size: 12px;&quot;&gt;} Token;&lt;/span&gt;&lt;/div&gt;" style="rounded=0;whiteSpace=wrap;html=1;fontSize=12;strokeWidth=1;fontStyle=0;align=left;" vertex="1" parent="1">
                    <mxGeometry x="-690" y="-760" width="390" height="330" as="geometry"/>
                </mxCell>
                <mxCell id="93" value="" style="edgeStyle=elbowEdgeStyle;html=1;dashed=1;strokeWidth=1;fontSize=12;fontColor=#FCFEFF;startArrow=none;startFill=0;endArrow=block;endFill=1;" edge="1" parent="1" source="90" target="92">
                    <mxGeometry relative="1" as="geometry"/>
                </mxCell>
                <mxCell id="94" value="Esempio" style="edgeLabel;html=1;align=center;verticalAlign=middle;resizable=0;points=[];fontSize=12;fontColor=#FCFEFF;" vertex="1" connectable="0" parent="93">
                    <mxGeometry x="-0.0929" y="2" relative="1" as="geometry">
                        <mxPoint as="offset"/>
                    </mxGeometry>
                </mxCell>
                <mxCell id="90" value="&lt;div&gt;Tokens starting with - can be considered options, but be cautious with negative numbers or arguments that start with -.&lt;/div&gt;&lt;div&gt;&lt;br&gt;&lt;/div&gt;&lt;div&gt;Some tokens require context to determine their type. For example, after a redirection operator, the next token should be a filename.&lt;/div&gt;&lt;div&gt;Similarly, after the &amp;lt;&amp;lt; heredoc operator, the next token is the delimiter.&lt;/div&gt;" style="rounded=0;whiteSpace=wrap;html=1;" vertex="1" parent="1">
                    <mxGeometry x="-270" y="-810" width="410" height="135" as="geometry"/>
                </mxCell>
                <mxCell id="92" value="&lt;div&gt;Input: cat &amp;lt; input.txt | grep &quot;pattern&quot; &amp;gt; output.txt&lt;/div&gt;&lt;div&gt;&lt;br&gt;&lt;/div&gt;&lt;div&gt;Tokenization:&lt;/div&gt;&lt;div&gt;&lt;br&gt;&lt;/div&gt;&lt;div&gt;cat (COMMAND)&lt;/div&gt;&lt;div&gt;&amp;lt; (REDIRECTION_IN)&lt;/div&gt;&lt;div&gt;input.txt (FILENAME)&lt;/div&gt;&lt;div&gt;| (PIPE)&lt;/div&gt;&lt;div&gt;grep (COMMAND)&lt;/div&gt;&lt;div&gt;&quot;pattern&quot; (ARGUMENT)&lt;/div&gt;&lt;div&gt;&amp;gt; (REDIRECTION_OUT)&lt;/div&gt;&lt;div&gt;output.txt (FILENAME)&lt;/div&gt;&lt;div&gt;&lt;br&gt;&lt;/div&gt;" style="whiteSpace=wrap;html=1;rounded=0;align=left;" vertex="1" parent="1">
                    <mxGeometry x="210" y="-780" width="255" height="252.5" as="geometry"/>
                </mxCell>
            </root>
        </mxGraphModel>
    </diagram>
</mxfile>